Coordinates
version=1
nRows=26
nColumns=22
inDegrees=yes

Units are S.I. units (second, meters, Newtons, ...)
If the header above contains a line with 'inDegrees', this indicates whether rotational values are in degrees (yes) or radians (no).

endheader
time	pelvis_tilt	pelvis_list	pelvis_rotation	pelvis_tx	pelvis_ty	pelvis_tz	hip_flexion_r	hip_adduction_r	hip_rotation_r	knee_angle_r	ankle_angle_r	subtalar_angle_r	hip_flexion_l	hip_adduction_l	hip_rotation_l	knee_angle_l	ankle_angle_l	subtalar_angle_l	lumbar_extension	lumbar_bending	lumbar_rotation
      2.75000000	      1.16305366	     -2.34826896	    -27.68055002	     -0.56663608	      0.98476551	     -0.26860082	     23.22975412	      5.40624502	    -23.66667877	    -23.65201944	      2.86299077	    -10.30945666	    -10.81164873	      0.43207422	    -10.36994718	    -29.59193785	     12.66093015	     10.77283535	    -15.05246092	      4.81170230	     -7.43273543
      2.76000000	      1.07387859	     -2.52244810	    -28.03785745	     -0.55842243	      0.98571993	     -0.26353830	     22.92996253	      5.70683221	    -23.22019256	    -24.17495225	      3.20488164	    -10.77094584	    -10.23324229	      0.09713760	    -10.14918008	    -31.57331516	     10.79567590	     11.64533161	    -14.95600751	      5.13554655	     -7.26400298
      2.77000000	      0.99086053	     -2.64789657	    -28.38780999	     -0.55039756	      0.98672212	     -0.25841738	     22.56878733	      5.98200708	    -22.82607131	    -24.55490276	      3.58878598	    -11.15543603	     -9.51104040	     -0.23490874	     -9.91605284	    -33.70631544	      8.80089764	     12.46920407	    -14.85452072	      5.39050342	     -7.12829054
      2.78000000	      0.90666009	     -2.73086174	    -28.72088172	     -0.54256711	      0.98773139	     -0.25325334	     22.15493911	      6.23477664	    -22.49847867	    -24.79605350	      4.02548290	    -11.47382684	     -8.64649451	     -0.57707912	     -9.67158949	    -35.97360443	      6.74966848	     13.22514302	    -14.73967761	      5.58874709	     -7.02792941
      2.79000000	      0.81924937	     -2.78645301	    -29.03746836	     -0.53493943	      0.98872244	     -0.24806762	     21.70255036	      6.47146920	    -22.22501968	    -24.93439500	      4.49358927	    -11.72010161	     -7.65461366	     -0.94242985	     -9.41742682	    -38.35168210	      4.73194567	     13.87450027	    -14.61858104	      5.74793383	     -6.96038994
      2.80000000	      0.72015007	     -2.82043839	    -29.33857595	     -0.52751352	      0.98965933	     -0.24287773	     21.23123523	      6.69880121	    -21.99535737	    -24.98977491	      4.99228346	    -11.90328239	     -6.54073474	     -1.33583311	     -9.15501968	    -40.81802495	      2.83654464	     14.44488741	    -14.48418706	      5.87965506	     -6.90686946
      2.81000000	      0.61429383	     -2.85513157	    -29.63166308	     -0.52027671	      0.99054372	     -0.23769478	     20.73837099	      6.93144676	    -21.79931427	    -24.98413577	      5.48951824	    -12.01652840	     -5.33826922	     -1.77039575	     -8.89971397	    -43.33689033	      1.14005132	     14.90437472	    -14.35470215	      6.00653628	     -6.85730884
      2.82000000	      0.49985484	     -2.88998108	    -29.92919944	     -0.51323696	      0.99135564	     -0.23251949	     20.24009610	      7.17326995	    -21.60073066	    -24.94156571	      5.99829521	    -12.07505308	     -4.06128319	     -2.23958131	     -8.65464480	    -45.87084209	     -0.27566555	     15.29494159	    -14.23094496	      6.12878714	     -6.79356096
      2.83000000	      0.38143036	     -2.93227108	    -30.24773017	     -0.50639397	      0.99209892	     -0.22732221	     19.73494023	      7.43293511	    -21.38364689	    -24.87450272	      6.50501569	    -12.08539880	     -2.73976674	     -2.74432821	     -8.43704300	    -48.37079688	     -1.37075155	     15.61836150	    -14.12218640	      6.24778304	     -6.70066291
      2.84000000	      0.27218695	     -3.01327551	    -30.60075368	     -0.49974636	      0.99282796	     -0.22207402	     19.18918438	      7.73841310	    -21.13686977	    -24.77270888	      6.96543264	    -12.06403176	     -1.42426874	     -3.31387891	     -8.27796185	    -50.78909290	     -2.11606783	     15.83467166	    -14.05854018	      6.38642613	     -6.56584979
      2.85000000	      0.16365521	     -3.10571048	    -31.00564070	     -0.49331728	      0.99351400	     -0.21674854	     18.63276117	      8.07489773	    -20.83076529	    -24.65263764	      7.40865056	    -12.01852152	     -0.10916474	     -3.92173930	     -8.17294556	    -53.08202558	     -2.51847037	     15.97027803	    -14.02143638	      6.51566443	     -6.37186069
      2.86000000	      0.09013782	     -3.24743380	    -31.47782125	     -0.48708406	      0.99425889	     -0.21131159	     18.00195008	      8.45820656	    -20.48223393	    -24.50253093	      7.81995958	    -11.97938315	      1.12700619	     -4.59236808	     -8.15374630	    -55.19962072	     -2.61022136	     15.96576901	    -14.06619930	      6.65120285	     -6.08241751
      2.87000000	      0.01983484	     -3.38228138	    -32.01463586	     -0.48108159	      0.99499836	     -0.20577544	     17.35756785	      8.86112915	    -20.03317530	    -24.31997627	      8.20384116	    -11.92514233	      2.34341272	     -5.28343837	     -8.18699829	    -57.12079137	     -2.43285363	     15.82045700	    -14.12454346	      6.75608304	     -5.75226641
      2.88000000	     -0.04403830	     -3.52478532	    -32.62853766	     -0.47532141	      0.99576553	     -0.20012242	     16.68565244	      9.29350406	    -19.49360590	    -24.10337367	      8.52955741	    -11.85897258	      3.51503825	     -6.00315022	     -8.27101784	    -58.82075086	     -2.05579743	     15.48354657	    -14.21099262	      6.83789996	     -5.35213081
      2.89000000	     -0.09823765	     -3.64722411	    -33.30650738	     -0.46976913	      0.99657099	     -0.19437568	     15.98841290	      9.72379679	    -18.85589954	    -23.84022466	      8.82576263	    -11.74048015	      4.64662907	     -6.71415892	     -8.38190457	    -60.27489397	     -1.58391532	     14.68372427	    -14.30300152	      6.87290669	     -4.90666177
      2.90000000	     -0.11273569	     -3.80637887	    -34.05942720	     -0.46443301	      0.99748765	     -0.18852111	     15.20751623	     10.17698363	    -18.15896124	    -23.53883144	      9.07148851	    -11.67326902	      5.66417759	     -7.44815396	     -8.52041692	    -61.47397570	     -1.01087372	     13.90035586	    -14.47020411	      6.89233867	     -4.38123697
      2.91000000	     -0.12292858	     -3.95504085	    -34.87564583	     -0.45932303	      0.99843093	     -0.18260290	     14.40864252	     10.62649802	    -17.37872309	    -23.20908667	      9.26702286	    -11.60731907	      6.63536624	     -8.16592801	     -8.64912053	    -62.42470310	     -0.41423349	     13.04399804	    -14.64637579	      6.87752418	     -3.82081471
      2.92000000	     -0.13518251	     -4.08450089	    -35.74007214	     -0.45437773	      0.99937861	     -0.17664928	     13.59671992	     11.05329299	    -16.57166868	    -22.84531679	      9.45242826	    -11.53848748	      7.56359630	     -8.84382563	     -8.73435524	    -63.11753304	      0.20602279	     12.09586897	    -14.80844547	      6.82916612	     -3.20443251
      2.93000000	     -0.15586545	     -4.19367498	    -36.65114074	     -0.44962730	      1.00030384	     -0.17068580	     12.78949238	     11.46147626	    -15.70563257	    -22.46429537	      9.60091204	    -11.46998677	      8.46130296	     -9.47749715	     -8.76578662	    -63.56578035	      0.82062889	     11.14233019	    -14.95643213	      6.75422184	     -2.57371113
      2.94000000	     -0.18916816	     -4.28232728	    -37.59512251	     -0.44502954	      1.00118729	     -0.16474652	     11.99098732	     11.84514896	    -14.80540788	    -22.06707320	      9.72580890	    -11.40021836	      9.33174258	    -10.05498083	     -8.71799829	    -63.77402670	      1.44370082	     10.17702377	    -15.08154332	      6.66361678	     -1.93085095
      2.95000000	     -0.23934277	     -4.35208662	    -38.56269389	     -0.44055604	      1.00201453	     -0.15882212	     11.20053955	     12.20553257	    -13.89251468	    -21.64751908	      9.83910504	    -11.33007842	     10.17472522	    -10.57678029	     -8.58282217	    -63.74664904	      2.08188963	      9.20765150	    -15.17720576	      6.56235567	     -1.28029031
      2.96000000	     -0.31910937	     -4.40474982	    -39.55904615	     -0.43622931	      1.00276971	     -0.15291948	     10.42684152	     12.55936012	    -12.92868031	    -21.19964382	      9.89403582	    -11.26556958	     11.00447965	    -11.05422462	     -8.36542510	    -63.50075816	      2.69447005	      8.33469176	    -15.23933060	      6.46367965	     -0.61853255
      2.97000000	     -0.39485113	     -4.45867711	    -40.53290547	     -0.43192907	      1.00346917	     -0.14711534	      9.64305728	     12.87375151	    -12.03510529	    -20.75226531	     10.02770038	    -11.19312129	     11.78008095	    -11.45671627	     -8.01702323	    -63.03969436	      3.40153277	      7.25770681	    -15.30158120	      6.37837495	      0.00804484
      2.98000000	     -0.50853743	     -4.50384517	    -41.51467169	     -0.42773194	      1.00407619	     -0.14134550	      8.87742822	     13.19149460	    -11.11636966	    -20.27320412	     10.10517038	    -11.12983621	     12.54832356	    -11.82761414	     -7.58232730	    -62.38950470	      4.07983086	      6.30363993	    -15.32809448	      6.31545973	      0.63383557
      2.99000000	     -0.64651912	     -4.54388909	    -42.48728904	     -0.42358033	      1.00459931	     -0.13562437	      8.11846355	     13.49967775	    -10.21086435	    -19.76973687	     10.17445311	    -11.07110509	     13.29392249	    -12.16018027	     -7.06693078	    -61.56141048	      4.75594414	      5.40733763	    -15.32942840	      6.27620519	      1.24331514
      3.00000000	     -0.79875904	     -4.58723076	    -43.44348337	     -0.41945962	      1.00504429	     -0.12998255	      7.36710382	     13.79517288	     -9.32136669	    -19.26949913	     10.24680763	    -11.01455316	     14.00942079	    -12.44986996	     -6.47022780	    -60.57807690	      5.43963893	      4.51389060	    -15.32496222	      6.26268337	      1.82981495
